<?xml version="1.0" standalone="no"?>
<!DOCTYPE svg PUBLIC "-//W3C//DTD SVG 20010904//EN"
 "http://www.w3.org/TR/2001/REC-SVG-20010904/DTD/svg10.dtd">
<svg version="1.0" xmlns="http://www.w3.org/2000/svg"
 width="1024.000000pt" height="1024.000000pt" viewBox="0 0 1024.000000 1024.000000"
 preserveAspectRatio="xMidYMid meet">

<g transform="translate(0.000000,1024.000000) scale(0.100000,-0.100000)"
fill="#c87824" stroke="none">
<path d="M5160 9124 c-160 -34 -320 -105 -430 -189 -204 -157 -383 -475 -450
-797 -64 -310 -51 -601 44 -1003 75 -320 72 -464 -12 -557 -49 -55 -166 -110
-407 -191 -215 -73 -326 -117 -458 -183 -209 -105 -410 -231 -665 -418 -462
-337 -584 -371 -942 -256 -52 17 -126 33 -165 36 -92 7 -129 -11 -165 -81 -22
-43 -25 -65 -28 -168 -3 -97 0 -137 18 -211 52 -212 150 -439 280 -646 40 -63
87 -147 106 -187 44 -97 134 -251 202 -343 30 -41 126 -147 213 -235 l158
-160 15 -66 c21 -93 55 -163 114 -241 l52 -67 -34 -49 c-39 -59 -251 -331
-351 -452 -106 -128 -105 -125 -105 -205 1 -92 14 -120 152 -311 319 -442 335
-460 420 -484 40 -12 98 3 133 33 14 12 38 54 54 92 17 44 34 71 45 73 10 2
51 -12 91 -32 41 -20 87 -36 103 -36 31 0 100 44 126 82 35 50 9 152 -58 222
l-31 34 44 6 c24 3 79 6 122 6 132 0 189 37 189 125 0 47 -23 91 -58 109 -33
17 -266 77 -527 136 -264 59 -355 82 -355 87 0 3 39 62 87 132 192 279 178
267 288 251 275 -39 514 18 875 209 86 46 155 67 191 58 34 -9 286 -251 365
-351 l63 -80 -34 -45 c-215 -283 -393 -650 -451 -931 -25 -125 -24 -263 3
-321 30 -66 86 -124 146 -152 118 -55 735 -214 957 -246 312 -45 801 -41 1055
10 189 38 275 101 275 199 0 73 -39 137 -154 252 -57 57 -131 141 -165 188
-74 101 -150 249 -158 308 l-6 42 39 0 c22 0 84 -7 139 -15 194 -28 272 -16
318 47 25 33 26 108 3 143 -26 39 -63 52 -186 64 -169 17 -317 46 -340 66 -26
23 -26 70 0 215 22 132 60 251 106 335 85 158 40 260 -148 335 -90 36 -128 57
-128 71 0 5 26 56 59 112 32 56 82 145 110 198 l53 96 56 13 c94 21 170 66
253 149 152 153 185 314 100 483 l-29 58 113 197 c63 109 123 208 134 221 13
15 31 22 55 22 19 0 72 12 118 26 299 95 569 336 655 587 65 193 21 408 -114
548 l-34 36 70 141 c38 77 103 198 144 268 93 162 241 429 284 513 59 113 39
200 -57 249 -114 57 -190 13 -290 -168 -29 -52 -83 -148 -121 -212 -57 -98
-142 -258 -350 -653 l-26 -50 -244 1 c-194 0 -258 4 -313 17 -151 38 -256 93
-465 243 -145 104 -128 79 -275 419 -105 242 -142 355 -171 519 -24 138 -10
186 63 219 42 20 63 22 207 21 115 0 195 -6 285 -22 423 -72 787 -81 923 -23
124 53 165 146 113 256 -28 61 -25 59 -356 272 -320 205 -400 258 -420 275
-34 28 -68 86 -94 158 -53 150 -188 321 -325 415 -182 124 -481 184 -691 139z
m311 -300 c188 -55 383 -225 444 -386 25 -67 17 -174 -18 -251 -30 -65 -113
-158 -173 -193 -62 -37 -161 -75 -233 -90 -89 -19 -147 -49 -212 -111 -111
-105 -137 -219 -100 -428 40 -220 66 -295 209 -605 190 -413 316 -791 358
-1075 29 -192 8 -512 -52 -782 -8 -40 -19 -73 -24 -73 -19 0 -147 44 -223 76
-248 106 -497 298 -663 510 -69 89 -91 101 -153 84 -52 -14 -82 -49 -88 -105
-5 -39 0 -57 32 -123 33 -65 59 -98 169 -207 238 -238 436 -347 1032 -570 360
-136 345 -126 333 -209 -11 -81 -43 -143 -88 -165 -162 -83 -427 -119 -635
-87 -431 69 -847 278 -1152 581 -55 55 -133 144 -173 197 -107 143 -159 167
-239 109 -53 -39 -68 -83 -48 -140 22 -65 73 -143 166 -254 212 -251 498 -454
857 -607 l133 -57 -38 -35 c-173 -156 -511 -279 -847 -308 -195 -17 -217 -23
-332 -91 -234 -139 -470 -206 -628 -181 -184 30 -299 132 -354 314 -13 40 -28
87 -34 103 -6 17 -67 89 -135 160 -242 253 -309 341 -412 544 -38 75 -104 195
-146 266 -180 304 -281 589 -215 610 10 3 61 -4 112 -16 54 -12 148 -23 219
-26 152 -7 239 12 387 82 117 55 168 87 443 275 458 314 691 436 1103 576 285
97 367 136 445 213 119 117 162 234 163 439 0 152 -8 209 -67 456 -64 268 -77
365 -70 516 25 558 273 963 650 1065 72 19 230 19 297 -1z m793 -736 c61 -46
171 -123 244 -172 72 -49 130 -91 128 -93 -2 -2 -55 5 -117 16 -96 17 -412 61
-439 61 -4 0 1 39 11 88 21 95 48 182 56 182 3 0 56 -37 117 -82z m-167 -2046
c72 -37 180 -68 264 -78 l60 -7 -19 -21 c-11 -11 -33 -48 -50 -81 -98 -198
-97 -386 5 -504 l36 -43 -21 -42 -20 -43 -74 -6 c-61 -5 -130 -20 -249 -54
-14 -4 -15 2 -8 44 4 26 11 116 15 198 9 198 -11 361 -72 573 -24 86 -44 160
-44 164 0 5 26 -9 58 -30 31 -22 85 -53 119 -70z m849 -107 c69 -26 130 -62
159 -94 25 -29 55 -124 55 -179 0 -108 -146 -284 -311 -372 -32 -17 -59 -29
-59 -27 0 2 12 32 26 67 33 83 27 117 -32 179 l-45 46 -99 -2 -99 -2 -7 35
c-21 115 70 266 211 349 68 41 92 41 201 0z m-800 -1082 c-18 -32 -47 -81 -63
-110 l-29 -52 -52 24 c-49 23 -52 26 -52 62 0 21 8 54 18 73 19 40 68 58 159
59 l52 1 -33 -57z m-762 -1094 c155 -18 145 -3 80 -127 -31 -59 -60 -111 -65
-116 -4 -4 -29 -1 -56 7 -76 24 -117 28 -171 16 -104 -22 -190 -120 -232 -266
l-22 -78 -52 -23 c-28 -12 -88 -49 -133 -81 l-82 -59 -40 51 c-22 29 -78 90
-126 136 -47 46 -84 85 -83 86 2 1 30 7 63 14 248 54 535 206 690 367 90 93
82 91 229 73z m84 -584 c255 -106 274 -115 269 -128 -39 -93 -51 -117 -59
-117 -25 0 -281 73 -355 101 -107 41 -127 59 -121 113 3 23 13 59 23 80 22 46
11 48 243 -49z m-388 -343 c114 -62 438 -162 528 -162 19 0 19 -8 14 -207 -6
-275 21 -445 94 -601 47 -97 155 -257 249 -366 55 -65 73 -92 63 -97 -35 -20
-346 -45 -392 -32 -25 8 -34 23 -82 143 -84 208 -140 368 -159 450 -24 106
-35 130 -62 141 -30 11 -68 -5 -95 -42 -10 -14 -26 -63 -34 -110 -25 -136 -5
-302 56 -484 16 -49 28 -91 25 -94 -9 -8 -222 18 -324 40 -149 33 -138 22
-146 136 -7 108 7 336 31 483 25 150 33 243 23 263 -13 23 -60 22 -91 -3 -14
-11 -34 -39 -43 -62 -42 -103 -137 -400 -166 -521 -18 -73 -33 -137 -35 -144
-3 -13 -52 -2 -206 44 -104 31 -102 25 -63 179 81 324 270 688 497 959 46 54
107 119 137 143 l54 44 36 -35 c20 -19 61 -48 91 -65z"/>
<path d="M5422 8480 c-61 -37 -90 -111 -77 -196 5 -36 17 -57 52 -95 51 -55
96 -74 159 -66 186 21 223 271 53 357 -52 27 -143 27 -187 0z"/>
</g>
</svg>
