<?xml version="1.0" standalone="no"?>
<!DOCTYPE svg PUBLIC "-//W3C//DTD SVG 20010904//EN"
 "http://www.w3.org/TR/2001/REC-SVG-20010904/DTD/svg10.dtd">
<svg version="1.0" xmlns="http://www.w3.org/2000/svg"
 width="1024.000000pt" height="1024.000000pt" viewBox="0 0 1024.000000 1024.000000"
 preserveAspectRatio="xMidYMid meet">

<g transform="translate(0.000000,1024.000000) scale(0.100000,-0.100000)"
fill="#000000" stroke="none">
<path d="M7181 8744 c-165 -28 -363 -111 -506 -212 -134 -95 -267 -244 -348
-392 -55 -100 -109 -271 -114 -365 -5 -72 -3 -84 19 -115 13 -19 43 -45 68
-57 41 -22 57 -23 240 -23 271 1 299 15 345 175 32 111 61 162 139 243 250
261 675 192 839 -137 l42 -84 0 -126 c0 -112 -3 -132 -25 -186 -46 -109 -101
-178 -305 -380 -112 -111 -231 -240 -268 -290 -155 -210 -217 -411 -217 -708
0 -146 11 -183 63 -221 27 -20 42 -21 260 -21 320 0 318 -2 337 229 24 290 66
367 332 615 409 381 528 580 545 911 27 554 -395 1043 -986 1144 -116 20 -342
20 -460 0z"/>
<path d="M3890 7624 c-735 -99 -1287 -577 -1550 -1341 -103 -298 -164 -633
-191 -1053 -14 -216 -7 -759 16 -1235 17 -365 19 -822 4 -1002 -27 -336 -100
-616 -223 -861 -37 -74 -46 -102 -46 -144 0 -102 67 -178 163 -186 105 -8 171
49 253 223 137 291 207 614 235 1085 12 210 8 479 -17 990 -33 708 -29 1077
16 1437 100 786 411 1318 919 1573 288 144 690 194 1023 125 419 -86 742 -348
945 -765 76 -157 88 -199 88 -315 -1 -112 -14 -159 -107 -375 -74 -170 -345
-727 -385 -788 -43 -68 -73 -80 -215 -88 -215 -10 -400 -44 -487 -89 -177 -89
-290 -241 -328 -436 -12 -67 -14 -127 -10 -299 11 -432 91 -868 342 -1870 118
-469 119 -473 158 -517 102 -116 282 -62 318 96 8 35 -4 93 -92 443 -239 958
-339 1547 -327 1921 4 109 8 141 27 183 44 101 117 145 278 169 263 40 450 16
1288 -162 500 -106 653 -126 790 -105 144 22 257 82 303 161 23 39 27 57 27
121 -1 93 -29 157 -120 270 -51 64 -823 959 -992 1152 -29 32 -55 69 -57 81
-3 12 -10 54 -16 92 -19 111 -85 362 -123 461 -94 244 -211 430 -376 594 -255
254 -573 401 -985 455 -144 19 -403 18 -546 -1z m2201 -2354 c163 -190 353
-410 421 -490 69 -80 124 -148 121 -152 -13 -22 -156 -3 -495 66 -567 116
-758 159 -758 168 0 5 87 185 193 399 176 358 193 388 207 372 8 -10 148 -173
311 -363z"/>
<path d="M4359 6490 c-99 -17 -188 -84 -234 -177 -25 -50 -29 -70 -29 -143 -1
-107 25 -169 95 -235 89 -83 204 -112 313 -81 126 37 200 113 232 237 58 226
-143 438 -377 399z"/>
<path d="M7286 5466 c-203 -86 -291 -311 -199 -507 38 -81 100 -144 183 -183
59 -28 74 -31 165 -31 93 0 105 2 166 32 81 40 140 102 181 190 27 56 31 76
31 147 -1 59 -7 97 -23 139 -29 76 -110 164 -187 202 -50 25 -72 29 -158 32
-88 3 -107 1 -159 -21z"/>
</g>
</svg>
