<?xml version="1.0" standalone="no"?>
<!DOCTYPE svg PUBLIC "-//W3C//DTD SVG 20010904//EN"
 "http://www.w3.org/TR/2001/REC-SVG-20010904/DTD/svg10.dtd">
<svg version="1.0" xmlns="http://www.w3.org/2000/svg"
 width="1024.000000pt" height="1024.000000pt" viewBox="0 0 1024.000000 1024.000000"
 preserveAspectRatio="xMidYMid meet">

<g transform="translate(0.000000,1024.000000) scale(0.100000,-0.100000)"
fill="#c87824" stroke="none">
<path d="M6690 8059 c-123 -25 -262 -65 -326 -94 -168 -77 -362 -235 -484
-395 -121 -159 -349 -533 -765 -1255 -659 -1144 -797 -1387 -995 -1747 -38
-71 -62 -103 -87 -118 -40 -24 -93 -26 -132 -6 -28 15 -159 158 -371 406 -63
74 -147 168 -186 210 -39 41 -163 179 -276 305 -237 266 -307 334 -380 368
-57 27 -140 47 -191 47 -58 0 -151 -30 -207 -67 -91 -60 -271 -204 -338 -270
-81 -81 -104 -132 -110 -250 -8 -159 25 -216 300 -524 101 -113 252 -285 337
-384 85 -99 173 -200 195 -225 62 -69 87 -98 282 -325 100 -115 214 -248 255
-295 40 -47 102 -119 138 -160 35 -41 88 -102 116 -135 29 -33 130 -150 225
-260 232 -268 396 -450 459 -508 62 -58 114 -82 208 -99 60 -10 80 -9 139 5
142 36 142 35 472 567 67 107 181 286 254 398 73 111 167 255 208 319 41 65
143 222 225 350 83 128 274 425 425 660 447 694 612 928 826 1173 257 295 563
466 910 510 42 5 250 10 462 10 409 1 465 6 568 52 62 27 149 115 163 164 17
59 13 115 -9 152 -25 40 -199 156 -378 251 -72 38 -180 100 -239 137 -276 171
-422 265 -433 279 -7 8 -38 67 -71 130 -98 194 -196 316 -348 431 -141 106
-265 158 -456 189 -98 16 -313 18 -385 4z m415 -399 c243 -61 415 -221 472
-441 15 -59 16 -91 7 -302 -9 -214 -12 -240 -31 -264 -15 -21 -53 -40 -159
-79 -154 -56 -278 -116 -369 -177 -291 -196 -492 -414 -846 -917 -208 -296
-727 -1070 -978 -1460 -278 -430 -312 -480 -342 -495 -36 -19 -92 -19 -128 0
-25 13 -143 142 -328 362 -71 83 -89 131 -71 184 15 45 150 290 505 919 159
283 356 634 438 780 321 576 713 1257 831 1442 100 157 218 277 349 354 64 37
203 92 276 109 85 19 267 12 374 -15z"/>
<path d="M7030 7271 c-50 -26 -97 -92 -106 -147 -18 -124 76 -237 199 -237
117 0 207 89 207 203 0 80 -49 157 -119 186 -48 20 -139 18 -181 -5z"/>
</g>
</svg>
