<?xml version="1.0" standalone="no"?>
<!DOCTYPE svg PUBLIC "-//W3C//DTD SVG 20010904//EN"
 "http://www.w3.org/TR/2001/REC-SVG-20010904/DTD/svg10.dtd">
<svg version="1.0" xmlns="http://www.w3.org/2000/svg"
 width="1024.000000pt" height="1024.000000pt" viewBox="0 0 1024.000000 1024.000000"
 preserveAspectRatio="xMidYMid meet">

<g transform="translate(0.000000,1024.000000) scale(0.100000,-0.100000)"
    fill="#000000">
<path d="M5342 8990 c-42 -26 -48 -41 -117 -294 -48 -178 -55 -213 -45 -239
15 -45 48 -76 92 -88 32 -8 46 -7 75 8 20 10 45 29 55 43 21 30 128 419 128
467 0 99 -102 155 -188 103z"/>
<path d="M4565 8991 c-44 -18 -60 -50 -59 -115 2 -92 119 -407 169 -453 27
-26 43 -33 75 -33 86 0 128 50 117 138 -5 46 -70 246 -118 367 -36 89 -108
127 -184 96z"/>
<path d="M3888 8624 c-52 -28 -78 -119 -49 -172 12 -22 269 -241 338 -288 111
-75 244 48 175 161 -19 31 -258 242 -326 289 -44 30 -96 34 -138 10z"/>
<path d="M5015 8170 c-208 -43 -377 -111 -510 -205 -86 -61 -236 -220 -299
-317 -176 -272 -245 -545 -233 -925 6 -197 6 -196 147 -627 107 -327 120 -376
99 -376 -31 0 -224 124 -394 254 -290 221 -581 536 -790 856 -94 143 -135 215
-265 460 -183 347 -261 432 -406 447 -47 5 -63 2 -117 -25 -191 -94 -280 -262
-294 -552 -7 -148 9 -269 53 -395 55 -159 62 -142 -58 -141 -88 1 -109 -2
-144 -21 -93 -50 -144 -150 -152 -300 -11 -219 102 -465 307 -668 50 -49 91
-97 91 -106 0 -13 -14 -17 -65 -22 -76 -7 -112 -25 -144 -73 -54 -79 -72 -186
-47 -283 29 -114 73 -188 166 -281 179 -179 508 -332 910 -425 87 -20 362 -55
432 -55 30 0 33 -28 7 -56 -38 -41 -144 -113 -213 -145 -150 -70 -326 -76
-555 -18 -140 35 -175 34 -232 -4 -49 -32 -89 -116 -89 -187 0 -147 150 -497
299 -698 143 -193 323 -352 581 -516 l172 -109 -8 -46 c-16 -89 -8 -140 35
-224 23 -43 41 -86 41 -95 0 -29 -53 -113 -162 -258 -112 -150 -145 -215 -133
-261 9 -36 177 -208 280 -286 145 -109 407 -217 529 -217 63 0 113 24 143 69
28 42 29 80 3 114 -11 14 -20 27 -20 30 0 2 49 6 109 9 122 6 181 29 207 80
23 45 18 112 -11 147 -32 37 -54 44 -240 77 -309 53 -560 131 -538 167 4 7 23
37 42 67 20 31 45 75 55 98 12 27 24 41 33 38 7 -3 50 -13 94 -22 108 -22 282
-15 394 16 112 30 267 97 352 153 l73 46 166 -10 c251 -15 474 10 686 77 90
29 314 129 377 169 22 14 49 25 59 25 30 0 89 -49 202 -166 185 -193 274 -312
359 -482 53 -106 88 -142 139 -142 32 0 186 62 337 136 282 137 593 373 596
451 4 100 -40 153 -125 153 -41 0 -145 -37 -216 -77 -27 -15 -52 -24 -56 -20
-4 3 5 33 19 64 45 100 53 147 37 195 -17 49 -67 88 -112 88 -81 0 -214 -112
-388 -328 -58 -72 -109 -131 -115 -131 -5 0 -33 30 -61 67 -66 86 -258 304
-318 361 l-47 43 23 28 c13 16 53 63 90 105 101 116 220 299 257 394 88 228
130 432 138 674 l6 168 46 -6 c25 -4 100 -15 166 -25 246 -39 450 -35 664 11
213 46 354 120 470 244 84 90 121 168 121 254 0 93 -27 143 -101 190 -32 20
-58 39 -59 43 0 4 28 21 62 38 97 48 176 110 280 218 153 160 221 290 222 427
1 69 -3 88 -28 137 -34 67 -78 116 -123 134 -18 8 -68 14 -112 14 l-81 0 10
24 c5 14 30 53 56 88 64 85 127 222 160 343 21 81 26 122 27 215 0 102 -4 126
-31 208 -58 178 -134 242 -287 242 -121 -1 -196 -48 -427 -268 -179 -171 -267
-249 -388 -343 -227 -176 -642 -436 -935 -585 -175 -88 -401 -184 -435 -184
-20 0 -86 136 -132 270 -52 154 -74 335 -43 360 12 10 26 5 77 -28 145 -95
322 -144 520 -146 l117 -1 37 36 c73 73 63 153 -40 307 -60 92 -156 276 -156
302 0 5 10 12 23 14 12 3 58 12 102 22 223 46 536 206 638 324 78 91 74 212
-8 266 -23 15 -47 16 -223 10 -158 -5 -215 -4 -286 9 -162 28 -302 104 -349
187 -13 24 -44 79 -68 123 -129 235 -466 444 -809 501 -108 18 -154 17 -265
-6z m395 -318 c52 -18 124 -48 160 -69 81 -47 256 -219 298 -293 28 -48 32
-64 32 -129 0 -222 -131 -431 -332 -528 -50 -24 -94 -53 -104 -68 -22 -34 -22
-114 1 -165 16 -36 17 -46 6 -73 -48 -117 -64 -192 -64 -317 -2 -362 120 -650
452 -1065 260 -324 370 -538 431 -835 19 -92 21 -126 17 -275 -12 -367 -109
-626 -335 -899 -191 -229 -510 -416 -802 -470 -93 -18 -290 -36 -387 -36 -59
0 -63 2 -78 30 -16 32 -61 60 -95 60 -35 0 -81 -29 -165 -104 -169 -152 -231
-188 -385 -227 -138 -35 -291 -17 -442 53 -37 17 -75 39 -85 50 -23 26 -21 87
6 156 12 28 30 76 42 104 18 45 19 59 10 90 -15 50 -53 78 -105 78 -23 0 -47
-5 -52 -10 -11 -11 -214 111 -342 205 -156 115 -350 327 -440 480 -40 69 -94
192 -108 249 -7 28 -6 29 22 22 60 -14 273 -18 390 -7 145 13 238 42 332 102
97 63 280 248 331 335 26 44 65 92 102 124 91 79 111 139 69 208 -35 57 -59
61 -295 55 -318 -8 -538 22 -810 111 -220 73 -371 153 -499 267 -49 44 -106
122 -106 146 0 27 81 36 278 29 l192 -6 41 38 c34 31 42 46 46 86 9 72 -12
101 -112 164 -175 110 -338 263 -438 411 -75 111 -138 251 -144 320 -6 69 3
76 73 61 64 -15 105 -38 213 -120 126 -96 163 -114 233 -114 50 -1 60 3 87 28
17 17 35 45 40 63 16 58 -5 107 -121 270 -111 157 -166 289 -208 494 -30 147
-25 284 16 410 18 58 58 98 81 83 24 -15 110 -164 209 -359 178 -350 279 -502
524 -790 190 -223 365 -387 615 -575 216 -163 452 -297 603 -344 138 -43 190
-33 230 44 21 39 23 55 18 120 -7 103 -69 340 -160 617 -140 426 -169 617
-131 863 47 311 178 544 405 720 202 156 501 210 740 132z m652 -1297 c86
-158 98 -185 78 -185 -24 0 -182 70 -226 100 -81 55 -154 121 -154 138 1 25
148 112 185 109 27 -2 36 -14 117 -162z m2029 103 c13 -50 4 -183 -18 -267
-60 -232 -206 -419 -497 -639 -94 -71 -108 -142 -40 -201 73 -65 157 -64 372
3 90 29 130 36 193 36 93 0 94 -2 49 -90 -34 -68 -127 -171 -210 -234 -94 -70
-251 -145 -429 -203 -91 -29 -174 -62 -184 -71 -49 -44 -59 -105 -27 -157 25
-41 67 -61 166 -80 88 -17 252 -69 279 -89 30 -22 9 -52 -70 -102 -155 -96
-334 -131 -620 -119 -99 3 -216 10 -260 13 -76 7 -149 2 -206 -13 -27 -7 -27
-5 -68 121 -74 230 -173 413 -349 647 -57 76 -101 144 -99 151 3 8 41 28 84
46 246 101 578 281 893 483 317 203 492 340 741 583 245 239 279 259 300 182z"/>
<path d="M5304 7401 c-105 -48 -134 -177 -60 -273 38 -50 98 -88 142 -88 55 0
121 30 159 71 32 36 35 44 35 99 0 156 -140 253 -276 191z"/>
</g>
</svg>
