<?xml version="1.0" standalone="no"?>
<!DOCTYPE svg PUBLIC "-//W3C//DTD SVG 20010904//EN"
 "http://www.w3.org/TR/2001/REC-SVG-20010904/DTD/svg10.dtd">
<svg version="1.0" xmlns="http://www.w3.org/2000/svg"
 width="1024.000000pt" height="1024.000000pt" viewBox="0 0 1024.000000 1024.000000"
 preserveAspectRatio="xMidYMid meet">

<g transform="translate(0.000000,1024.000000) scale(0.100000,-0.100000)"
fill="#000000" stroke="none">
<path d="M2342 8610 c-268 -70 -530 -333 -598 -599 -19 -77 -20 -241 -22
-3708 l-2 -2342 -169 -3 c-153 -3 -172 -5 -197 -24 -49 -36 -67 -70 -72 -131
-5 -72 21 -117 88 -151 l45 -23 3205 6 c1918 4 3220 10 3241 16 53 13 106 75
114 133 10 64 -24 132 -80 160 -43 22 -85 24 -765 25 l-285 1 97 97 c53 54
101 108 107 120 6 12 11 44 11 72 0 58 -32 104 -87 127 -52 22 -93 17 -423
-51 -172 -36 -320 -65 -327 -63 -8 2 -74 117 -148 256 l-133 253 26 10 c257
94 443 210 627 394 395 392 551 971 416 1536 -32 136 -87 282 -181 479 -125
263 -156 369 -166 560 -7 126 8 298 32 380 22 73 72 124 168 170 143 69 247
97 1194 325 114 28 168 74 179 153 15 109 -36 176 -192 254 -55 28 -227 115
-381 195 l-281 144 -27 64 c-45 103 -123 214 -226 315 -199 197 -432 290 -730
290 -201 0 -388 -43 -553 -128 -113 -58 -190 -116 -284 -216 l-73 -76 0 152
c0 189 -15 263 -75 385 -36 73 -64 112 -132 184 -135 141 -262 222 -411 260
-72 18 -121 19 -1266 18 -1137 0 -1194 -1 -1264 -19z m2471 -322 c184 -65 306
-199 337 -370 7 -37 9 -238 7 -570 -4 -455 -6 -531 -25 -668 -14 -98 -25 -260
-32 -440 -15 -406 -25 -459 -106 -529 -50 -44 -62 -48 -242 -71 -244 -32 -374
-61 -557 -127 -221 -79 -369 -156 -635 -330 -301 -197 -415 -241 -648 -250
-102 -4 -159 -1 -241 12 -133 23 -183 13 -242 -46 -56 -56 -74 -127 -59 -222
66 -400 249 -847 472 -1150 71 -95 237 -268 356 -369 56 -48 82 -77 82 -92 0
-67 66 -236 116 -295 l24 -29 -166 -228 c-215 -293 -216 -296 -81 -442 34 -37
71 -77 81 -89 l19 -23 -611 0 -610 0 4 2953 c3 2003 8 2971 15 3012 34 190
191 340 394 374 28 5 556 8 1175 7 1028 -1 1129 -3 1173 -18z m1797 -568 c212
-60 362 -182 450 -365 84 -175 91 -397 17 -558 -49 -106 -79 -128 -275 -202
-133 -51 -198 -91 -277 -172 -113 -116 -153 -253 -162 -553 -8 -296 16 -408
146 -687 194 -418 249 -630 238 -913 -18 -428 -189 -767 -507 -1006 -183 -138
-469 -242 -752 -273 -141 -16 -392 -13 -548 5 -207 24 -237 17 -469 -110 -162
-89 -250 -117 -381 -123 -167 -8 -296 33 -402 126 -59 52 -92 120 -118 240
-11 51 -27 106 -35 121 -8 16 -68 75 -133 133 -216 191 -324 322 -448 538
-120 211 -226 492 -259 686 l-7 43 34 -8 c64 -14 309 -7 396 12 189 40 290 86
547 248 469 297 684 383 1100 443 214 31 239 36 332 81 214 102 285 259 313
691 23 372 32 473 51 597 43 290 131 542 245 702 89 127 253 248 398 294 140
45 368 49 506 10z m-1640 -5031 c106 -11 568 -7 621 6 25 6 30 -2 211 -359
l185 -366 -561 0 c-309 -1 -663 -3 -787 -6 l-227 -6 -7 41 c-8 47 -38 95 -78
125 -26 19 -46 22 -210 27 -212 6 -214 7 -439 120 l-146 74 55 75 c30 41 61
83 68 93 11 16 16 16 77 -7 116 -44 216 -59 357 -53 188 7 279 38 531 178 163
90 125 84 350 58z"/>
<path d="M6535 7336 c-58 -21 -121 -94 -134 -155 -29 -138 70 -261 211 -261
176 0 273 202 164 344 -52 69 -160 101 -241 72z"/>
<path d="M5529 5067 c-65 -43 -70 -66 -67 -299 l3 -207 -585 -3 c-651 -3 -619
0 -657 -71 -16 -28 -18 -62 -18 -279 0 -233 1 -248 21 -274 31 -42 67 -65 115
-75 24 -4 286 -6 581 -3 l537 5 3 -220 c3 -205 4 -221 24 -248 47 -63 125 -82
196 -49 19 9 176 148 349 307 377 349 486 455 505 491 18 35 18 101 0 136 -8
15 -79 87 -158 161 -78 74 -254 239 -389 367 -135 128 -263 244 -284 258 -51
35 -127 36 -176 3z"/>
</g>
</svg>
