<?xml version="1.0" standalone="no"?>
<!DOCTYPE svg PUBLIC "-//W3C//DTD SVG 20010904//EN"
 "http://www.w3.org/TR/2001/REC-SVG-20010904/DTD/svg10.dtd">
<svg version="1.0" xmlns="http://www.w3.org/2000/svg"
 width="1024.000000pt" height="1024.000000pt" viewBox="0 0 1024.000000 1024.000000"
 preserveAspectRatio="xMidYMid meet">

<g transform="translate(0.000000,1024.000000) scale(0.100000,-0.100000)"
fill="#000000" stroke="none">
<path d="M6140 9135 c-167 -38 -299 -114 -440 -255 -198 -198 -303 -440 -330
-760 -19 -215 1 -378 97 -817 26 -117 43 -216 39 -220 -4 -5 -62 -8 -129 -8
l-122 0 -8 105 c-20 283 -114 453 -299 544 -137 68 -168 71 -673 71 -396 0
-458 -2 -519 -18 -113 -29 -194 -73 -267 -146 -107 -107 -162 -250 -175 -456
l-7 -104 -376 2 c-429 2 -445 0 -608 -79 -111 -55 -200 -133 -270 -238 -27
-41 -102 -180 -167 -308 -116 -229 -118 -234 -118 -299 1 -36 6 -79 12 -95 41
-106 167 -173 327 -174 l62 0 5 -32 c3 -18 7 -55 10 -83 32 -294 152 -1389
176 -1595 17 -146 44 -382 60 -525 42 -372 75 -649 114 -975 19 -157 42 -348
51 -425 43 -384 78 -469 260 -644 73 -69 114 -99 177 -130 166 -82 59 -76
1468 -76 l1255 0 85 22 c47 12 132 46 190 75 90 45 118 66 196 143 73 72 99
105 127 165 55 116 65 159 92 390 13 118 43 368 65 555 22 187 58 495 80 685
59 514 49 476 164 616 158 192 245 356 331 619 112 341 149 548 149 830 0 367
-56 606 -274 1175 -114 298 -146 395 -161 492 -30 192 55 294 297 359 73 20
114 22 534 29 267 4 468 11 486 17 80 27 143 74 170 125 20 39 18 131 -5 176
-29 56 -63 82 -211 162 -184 100 -296 171 -456 291 -202 151 -245 194 -267
265 -57 188 -258 392 -477 485 -125 53 -229 70 -455 75 -152 3 -215 0 -265
-11z m515 -305 c169 -53 308 -158 370 -282 45 -91 47 -164 9 -294 -51 -170
-74 -280 -81 -376 l-6 -97 -51 -17 c-92 -30 -186 -86 -261 -156 -132 -123
-171 -214 -162 -377 7 -131 38 -239 166 -583 208 -560 258 -757 268 -1058 9
-260 -26 -495 -111 -755 -90 -273 -217 -499 -396 -705 -74 -84 -87 -106 -99
-160 -9 -42 -87 -694 -111 -930 -6 -58 -22 -217 -36 -355 -58 -580 -59 -590
-108 -690 -53 -109 -122 -182 -216 -228 l-65 -32 -1135 -7 c-624 -4 -1187 -3
-1250 2 -178 12 -281 64 -362 179 -77 110 -58 -13 -258 1731 -22 190 -62 559
-90 820 -28 261 -73 683 -101 938 -27 254 -47 466 -45 471 3 5 711 9 1573 10
1538 2 1568 2 1612 22 142 63 196 179 208 445 11 247 -20 477 -122 914 -104
442 -117 520 -118 725 -1 188 10 256 63 392 46 119 98 201 180 283 143 143
321 204 565 195 64 -2 125 -12 170 -25z m791 -770 c55 -36 162 -99 237 -140
75 -41 137 -78 137 -82 0 -6 -571 1 -579 8 -6 5 39 213 55 253 19 48 16 49
150 -39z m-2698 -625 c63 -19 113 -66 130 -122 7 -22 12 -86 12 -142 l0 -101
-607 2 -608 3 1 90 c1 113 16 166 60 215 33 37 66 53 124 63 14 2 208 5 431 6
339 1 414 -2 457 -14z m831 -720 c2 -2 8 -47 13 -100 11 -109 -4 -358 -22
-380 -10 -12 -268 -14 -1706 -15 -932 0 -1694 3 -1694 6 0 14 134 261 178 328
45 68 96 114 162 145 32 14 161 16 1335 21 1254 5 1725 3 1734 -5z"/>
<path d="M6451 8522 c-19 -9 -48 -34 -64 -54 -60 -74 -43 -202 34 -261 42 -31
117 -51 165 -44 131 21 193 216 101 316 -53 57 -168 78 -236 43z"/>
<path d="M3365 5341 c-91 -42 -117 -108 -104 -266 4 -55 37 -473 73 -930 136
-1708 138 -1737 159 -1787 32 -77 140 -118 230 -89 45 15 94 70 102 115 4 18
0 119 -9 222 -9 104 -29 369 -46 589 -17 220 -39 515 -50 655 -11 140 -38 502
-61 805 -44 601 -46 609 -110 657 -37 28 -90 48 -123 48 -12 0 -39 -9 -61 -19z"/>
<path d="M4457 5346 c-45 -17 -82 -49 -105 -91 -16 -27 -17 -150 -20 -1430 -2
-991 0 -1411 8 -1437 13 -45 52 -93 91 -113 42 -22 124 -19 169 6 41 23 75 75
83 129 3 19 7 663 9 1430 l3 1395 -22 35 c-42 68 -143 103 -216 76z"/>
<path d="M5520 5331 c-19 -10 -48 -37 -64 -59 -28 -40 -30 -50 -42 -209 -22
-290 -34 -437 -70 -823 -18 -206 -45 -510 -59 -675 -13 -165 -41 -494 -61
-732 l-37 -432 24 -48 c31 -62 77 -93 140 -93 26 0 60 5 76 11 35 13 82 57 94
86 9 25 66 630 99 1058 11 149 32 403 45 565 14 162 27 329 31 370 3 41 23
249 44 462 40 407 40 429 0 481 -44 56 -152 75 -220 38z"/>
</g>
</svg>
